<svg width="50" height="50" viewBox="0 0 50 50" xmlns="http://www.w3.org/2000/svg" xmlns:xlink="http://www.w3.org/1999/xlink">
    <defs>
        <path d="m19.043 5.912-.003.032v.034c.003.046-.021 1.363-1.014 2.452l-7.907 8.752-7.89-8.732c-.434-.548-.7-1.19-.85-1.695a6.216 6.216 0 0 1-.15-.621A3.78 3.78 0 0 1 1.2 5.96l-.006-.041v-.008a4.31 4.31 0 0 1-.01-.769c.144-2.038 1.83-3.764 3.863-3.95a4.303 4.303 0 0 1 4.513 2.95l1.115-.002a4.302 4.302 0 0 1 4.513-2.949c2.033.187 3.72 1.913 3.864 3.951a4.637 4.637 0 0 1-.01.769m1.194-.44c0-.138-.005-.277-.015-.416-.2-2.623-2.302-4.775-4.922-5.03A5.61 5.61 0 0 0 14.766 0c-1.97 0-3.684 1.05-4.647 2.613C9.155 1.051 7.442.001 5.47 0c-.176 0-.355.009-.534.026C2.318.28.216 2.433.016 5.056a5.695 5.695 0 0 0 .012.974c.012.052.163 1.724 1.29 3.157l.012.015 8.789 9.728.434-.48 8.342-9.235c1.292-1.44 1.314-3.05 1.317-3.237v-.007c.015-.165.025-.331.025-.5" id="5hu4bda7ca"/>
    </defs>
    <g transform="translate(14.844 15.625)" fill="none" fill-rule="evenodd">
        <mask id="yly0pruj3b" fill="#fff">
            <use xlink:href="#5hu4bda7ca"/>
        </mask>
        <use fill="#231F20" xlink:href="#5hu4bda7ca"/>
        <g mask="url(#yly0pruj3b)" fill="#000">
            <path d="M-14.844-15.625h50v50h-50z"/>
        </g>
    </g>
</svg>
