<svg width="50" height="50" viewBox="0 0 50 50" xmlns="http://www.w3.org/2000/svg" xmlns:xlink="http://www.w3.org/1999/xlink">
    <defs>
        <path d="M16.865 0c.999 0 1.817.778 1.881 1.76l.004.125v2.672h3.11c1.109 0 2.016.86 2.092 1.923l.006.147.65 13.462a.586.586 0 0 1-.585.614H.586a.586.586 0 0 1-.585-.614L.65 6.655c0-1.158.939-2.098 2.098-2.098h3.11V1.885C5.86.886 6.638.068 7.62.004L7.744 0h9.12zm6.397 16.536H1.345l-.144 2.995h22.207l-.146-2.995zM5.859 5.729h-3.11c-.512 0-.926.415-.927.954l-.42 8.681h21.804l-.424-8.804a.927.927 0 0 0-.72-.809l-.107-.017-.094-.005H18.75v2.67l-.005.064h.721v1.172h-2.604V8.464l.72-.001-.004-.065V5.73H7.031v2.67l-.005.064h.721v1.172H5.143V8.464l.72-.001-.004-.065V5.73zm11.006-4.557h-9.12a.714.714 0 0 0-.709.63l-.005.083v2.672h10.547V1.885a.714.714 0 0 0-.63-.708l-.083-.005z" id="2g2osueuca"/>
    </defs>
    <g transform="translate(12.695 15.04)" fill="none" fill-rule="evenodd">
        <mask id="kvmus1s3wb" fill="#fff">
            <use xlink:href="#2g2osueuca"/>
        </mask>
        <use fill="#000" fill-rule="nonzero" xlink:href="#2g2osueuca"/>
        <g mask="url(#kvmus1s3wb)" fill="#0e3051">
            <path d="M-12.695-15.04h50v50h-50z"/>
        </g>
    </g>
</svg>
