<svg width="45" height="45" viewBox="0 0 45 45" xmlns="http://www.w3.org/2000/svg" xmlns:xlink="http://www.w3.org/1999/xlink">
    <defs>
        <path d="m10.142 0 .256.003.476.014.363.016.388.023.2.013c.986.07 1.947.184 2.823.351l.215.043.414.09c2.087.486 3.345 1.273 3.357 2.544l-.004.146.003.044v7.358a.527.527 0 0 1-.128.344c-.24.28-.814.631-1.856.96-1.645.518-4.04.824-7.332.824h-.375l-.726-.009a56.605 56.605 0 0 1-.351-.007l-.679-.02-.328-.014-.633-.032-.603-.04a29.395 29.395 0 0 1-1.88-.194l-.472-.071a16.024 16.024 0 0 1-1.253-.25c-1.032-.253-1.6-.524-1.843-.744a.527.527 0 0 1-.169-.317L0 11V4.954c0-.31.266-.549.566-.526l.103.017.6.118.683.125.001-2.208c0-.243.165-.447.389-.508.207-.684.93-1.132 2.083-1.433l.358-.086A16.65 16.65 0 0 1 6.465.186 29.7 29.7 0 0 1 8.764.023L9.252.01l.444-.007.446-.002zm7.436 5.174-.1.07a4.221 4.221 0 0 1-.798.415v2.68a.527.527 0 0 1-1.05.072l-.005-.071.001-2.356c-.28.065-.58.123-.9.173v2.886a.527.527 0 0 1-1.05.072l-.004-.072V6.29c-.286.029-.586.054-.898.075v2.678a.527.527 0 0 1-1.05.072l-.005-.072V6.421l-.67.023-.228.006v2.593a.527.527 0 0 1-1.05.072l-.005-.072-.001-2.57-.345.009c-.18.004-.363.005-.551.004l-.002 2.83a.527.527 0 0 1-1.05.072l-.005-.072.002-2.86a32.48 32.48 0 0 1-.899-.055v2.642a.527.527 0 0 1-1.05.072l-.006-.072.001-2.736c-.296-.03-.596-.064-.899-.1v2.836a.527.527 0 0 1-1.05.072l-.005-.072v-2.93l.003-.045-.61-.09-.292-.045V8.34a.527.527 0 0 1-1.05.071l-.004-.071-.001-2.581-.897-.164v5.12l.086.04.172.07.217.077c.12.04.259.082.416.126l.322.083c.772.19 1.733.341 2.902.446l.554.045.584.038.304.016.63.027c.107.004.215.008.326.01l.676.017.707.008h.366c3.192 0 5.482-.293 7.015-.776.594-.187.972-.363 1.183-.494l.063-.042V5.174zm-7.322-4.119-.549.002-.432.006-.474.014c-.768.027-1.517.077-2.217.157-.207.023-.407.05-.598.078l-.37.06-.346.065-.164.034-.308.073c-.886.223-1.413.504-1.459.78-.109.661.328 1.04 1.689 1.218l.33.037.35.03.587.036.441.021.33.013V2.238c0-.224.142-.421.348-.496l.07-.02a6.23 6.23 0 0 1 .425-.073l.307-.037c.581-.059 1.248-.07 1.936-.036l.376.022.378.03.378.04.374.048c.372.052.736.116 1.081.191l.338.08c1.269.32 2.205.807 2.205 1.426 0 .717-.753 1.047-2.316 1.21l-.36.034-.388.029-.415.024-.441.02-.469.018-.293.008-.607.012-.624.004h-.316l-.63-.005-.618-.012-.598-.016-.564-.021a40.807 40.807 0 0 1-.52-.026l-.466-.03-.208-.016c-1.085-.09-1.906-.311-2.442-.681v.9l.45.07c1.185.18 2.343.32 3.428.406.79.062 1.522.093 2.185.09l2.086-.046.289-.01c.178-.006.353-.013.523-.021l.5-.028.475-.033.45-.039.428-.045c2.422-.281 3.63-.884 3.752-1.98.081-.733-1.042-1.374-3.123-1.773a23.263 23.263 0 0 0-2.7-.335l-.427-.027-.402-.02-.36-.013-.305-.006zM8.12 2.69v1.017h.015c.81.015 1.661.015 2.437-.005l.287-.008.532-.021.498-.028c.64-.041 1.183-.1 1.607-.177a4.73 4.73 0 0 0 .477-.108l.028-.01-.081-.037a2.99 2.99 0 0 0-.098-.04l-.108-.04c-.468-.168-1.144-.313-1.93-.42-1.204-.162-2.52-.213-3.428-.144l-.236.021z" id="mllbfod5va"/>
    </defs>
    <g transform="translate(13.535 16.348)" fill="none" fill-rule="evenodd">
        <mask id="qyvzws0rub" fill="#fff">
            <use xlink:href="#mllbfod5va"/>
        </mask>
        <use fill="#0A0B09" fill-rule="nonzero" xlink:href="#mllbfod5va"/>
        <g mask="url(#qyvzws0rub)" fill="#000">
            <path d="M-13.535-16.348h45v45h-45z"/>
        </g>
    </g>
</svg>
